<svg xmlns="http://www.w3.org/2000/svg" viewBox="0 0 318.13 318.13"><g data-name="Layer 2"><g data-name="Layer 4"><circle cx="159.06" cy="159.06" r="159.06" style="fill:#e0e0e0"/><path d="M149.8 104.63c-4.28 2.44-13.61 7.82-20.8 12s-13.1 7.59-13.1 7.69 9.73 5.78 21.59 12.64l21.57 12.47 21.53-12.47c11.87-6.86 21.49-12.61 21.46-12.74s-9.39-5.55-20.79-12c-17.09-9.7-21-11.77-22.24-11.87-1.43-.17-1.9.03-9.22 4.28z" style="fill:#8c8c8c"/><path d="M149.8 104.63c-4.28 2.44-13.61 7.82-20.8 12s-13.1 7.59-13.1 7.69 9.73 5.78 21.59 12.64l21.57 12.47 21.53-12.47c11.87-6.86 21.49-12.61 21.46-12.74s-9.39-5.55-20.79-12c-17.09-9.7-21-11.77-22.24-11.87-1.43-.17-1.9.03-9.22 4.28z" style="fill:none;stroke:#646464;stroke-miterlimit:10"/><path style="fill:#646464" d="m148.79 103.66 2.69.01-1.36 2.33-1.33-2.34z"/><path d="M110.55 156.78c0 22.84 0 23.91.67 25.28a5 5 0 0 0 1.9 2.17c.67.4 10.13 5.89 21 12.14l19.72 11.4.1-24.74c0-13.64 0-24.87-.16-25s-9.3-5.48-20.33-11.83-20.7-12-21.46-12.41l-1.44-.83z" style="fill:#8c8c8c"/><path d="M110.55 156.78c0 22.84 0 23.91.67 25.28a5 5 0 0 0 1.9 2.17c.67.4 10.13 5.89 21 12.14l19.72 11.4.1-24.74c0-13.64 0-24.87-.16-25s-9.3-5.48-20.33-11.83-20.7-12-21.46-12.41l-1.44-.83z" style="fill:none;stroke:#646464;stroke-miterlimit:10"/><path style="fill:#646464" d="m109.2 157.18 1.35-2.33 1.34 2.33h-2.69z"/><path d="M185.94 145.38c-11.77 6.82-21.5 12.51-21.67 12.64s-.2 11.4-.16 25l.1 24.77L184.77 196c11.3-6.52 20.89-12.21 21.33-12.57a5.67 5.67 0 0 0 1.1-1.91c.2-.8.3-9.39.23-24.87l-.1-23.64z" style="fill:#8c8c8c"/><path d="M185.94 145.38c-11.77 6.82-21.5 12.51-21.67 12.64s-.2 11.4-.16 25l.1 24.77L184.77 196c11.3-6.52 20.89-12.21 21.33-12.57a5.67 5.67 0 0 0 1.1-1.91c.2-.8.3-9.39.23-24.87l-.1-23.64z" style="fill:none;stroke:#646464;stroke-miterlimit:10"/><path style="fill:#646464" d="m184.92 144.42 2.69-.01-1.34 2.34-1.35-2.33z"/><path style="fill:none;stroke:#646464;stroke-miterlimit:10;stroke-width:10px;stroke-dasharray:10,5" d="M159.01 262.87v-54.98"/><path style="fill:#646464" d="m172.47 258.93-13.46 23.32-13.46-23.32h26.92z"/><path style="fill:none;stroke:#646464;stroke-miterlimit:10;stroke-width:10px;stroke-dasharray:10,5" d="m252.52 100.85-50.4 29.09"/><path style="fill:#646464" d="M242.37 91.16h26.93l-13.46 23.32-13.47-23.32z"/><path style="fill:none;stroke:#646464;stroke-miterlimit:10;stroke-width:10px;stroke-dasharray:10,5" d="m65.61 101.02 50.4 29.09"/><path style="fill:#646464" d="M62.29 114.65 48.83 91.33h26.92l-13.46 23.32z"/></g></g></svg>