<svg xmlns="http://www.w3.org/2000/svg" viewBox="0 0 299.52 299.56"><g data-name="Layer 2"><g data-name="Layer 3"><circle cx="148.23" cy="148.07" r="117.45" style="fill:#969696"/><path d="M133.76.9c-34.5 3.8-64.5 18.4-89.5 43.4-26.1 26.1-40 55.7-43.6 93.1-3.3 33.3 5.8 67.1 25.9 97.4 7.4 11.1 27.1 30.8 38.2 38.2 30.3 20.1 64.1 29.2 97.4 25.9 37.4-3.6 67-17.5 93.1-43.6s40-55.7 43.6-93.1c3.3-33.3-5.8-67.1-25.9-97.4-7.4-11.1-27.1-30.8-38.2-38.2-31.3-20.8-65.9-29.6-101-25.7zm55 50.9a7.66 7.66 0 0 1 2 4.7c0 2.2-22 64.1-46.5 130.8-2.5 6.6-7.6 20.8-11.5 31.5s-7.8 21.4-8.6 23.8c-2.1 5.7-3.8 7.2-8.4 7.2s-7-2.1-7-6c0-1.6 7.2-22.6 15.9-46.7s24.1-66.3 34.1-93.8 18.8-50.8 19.7-51.7c2.2-2.4 7.8-2.3 10.3.2zm-88.7 57.8c1.3 1.1 1.7 2.7 1.5 5.6-.3 3.8-.9 4.4-16.3 16.9-8.8 7.1-17.9 14.6-20.2 16.6l-4.2 3.6 17.4 13.9c23.6 18.8 23.5 18.8 23.5 23a6.15 6.15 0 0 1-2.6 5.5c-4.9 3.9-6.2 3.4-20.5-8.4-4.7-3.8-14.9-12.1-22.7-18.4-14.7-11.8-16.3-14-14.2-19 .6-1.4 4.6-5.3 8.8-8.7s14.9-12 23.7-19.1 16.7-13.3 17.5-13.6c2.1-.8 6.24.2 8.3 2.1zm125 11.4c8.9 7.2 19.7 15.8 23.9 19.2s8.2 7.3 8.8 8.7c2.1 5 .5 7.2-14.2 19-7.8 6.3-18 14.6-22.7 18.4-14.3 11.8-15.6 12.3-20.5 8.4a6.15 6.15 0 0 1-2.6-5.5c0-4.2-.1-4.2 23.5-23l17.4-13.9-4.2-3.6c-2.3-2-11.4-9.5-20.2-16.6-15-12.2-16-13.2-16.3-16.7-.5-5.5 3.4-9.1 8.6-8 1.3.3 9.6 6.4 18.5 13.6z" style="fill:#e0e0e0"/></g></g></svg>