<?xml version="1.0" encoding="UTF-8" standalone="no"?>
<svg
   viewBox="0 0 64 64"
   version="1.1"
   id="svg6"
   sodipodi:docname="git.svg"
   inkscape:version="1.2.1 (9c6d41e410, 2022-07-14)"
   xmlns:inkscape="http://www.inkscape.org/namespaces/inkscape"
   xmlns:sodipodi="http://sodipodi.sourceforge.net/DTD/sodipodi-0.dtd"
   xmlns="http://www.w3.org/2000/svg"
   xmlns:svg="http://www.w3.org/2000/svg">
  <defs
     id="defs10">
    <pattern
       id="EMFhbasepattern"
       patternUnits="userSpaceOnUse"
       width="6"
       height="6"
       x="0"
       y="0" />
  </defs>
  <sodipodi:namedview
     id="namedview8"
     pagecolor="#ffffff"
     bordercolor="#000000"
     borderopacity="0.25"
     inkscape:showpageshadow="2"
     inkscape:pageopacity="0.0"
     inkscape:pagecheckerboard="0"
     inkscape:deskcolor="#d1d1d1"
     showgrid="false"
     inkscape:zoom="9.1592425"
     inkscape:cx="19.70687"
     inkscape:cy="33.299697"
     inkscape:window-width="1920"
     inkscape:window-height="1009"
     inkscape:window-x="-8"
     inkscape:window-y="-8"
     inkscape:window-maximized="1"
     inkscape:current-layer="svg6" />
  <path
     id="path11885"
     style="fill:#ffffff;fill-opacity:1;stroke-width:1.03934"
     d="M 32 0 A 32 32 0 0 0 0 32 A 32 32 0 0 0 32 64 A 32 32 0 0 0 64 32 A 32 32 0 0 0 32 0 z M 32 13.755859 C 42.334652 13.755859 50.705078 22.126286 50.705078 32.460938 A 18.735667 18.735667 0 0 1 37.962891 50.208984 C 37.027628 50.396036 36.675781 49.811325 36.675781 49.320312 C 36.675781 48.68901 36.699219 46.677609 36.699219 44.175781 C 36.699219 42.422164 36.115566 41.299382 35.4375 40.714844 C 39.599419 40.247212 43.970703 38.656656 43.970703 31.478516 C 43.970703 29.420939 43.247146 27.762493 42.054688 26.453125 C 42.241739 25.985494 42.895976 24.068065 41.867188 21.496094 C 41.867188 21.496094 40.300035 20.980427 36.722656 23.412109 C 35.226236 22.99124 33.636821 22.78125 32.046875 22.78125 C 30.45693 22.78125 28.867513 22.991241 27.371094 23.412109 C 23.793713 21.003809 22.226562 21.496094 22.226562 21.496094 C 21.197774 24.068065 21.852011 25.985494 22.039062 26.453125 C 20.846604 27.762494 20.123047 29.444319 20.123047 31.478516 C 20.123047 38.633274 24.470895 40.247212 28.632812 40.714844 C 28.095037 41.182474 27.605078 42.000955 27.441406 43.216797 C 26.365854 43.707811 23.67566 44.502999 21.992188 41.673828 C 21.641464 41.112671 20.590225 39.732478 19.117188 39.755859 C 17.550622 39.779239 18.485943 40.645369 19.140625 40.996094 C 19.935598 41.440342 20.846207 43.100895 21.056641 43.638672 C 21.430746 44.690843 22.647963 46.701056 27.347656 45.835938 C 27.347656 47.402501 27.371094 48.876064 27.371094 49.320312 C 27.371094 49.811325 27.019247 50.372654 26.083984 50.208984 A 18.69358 18.69358 0 0 1 13.294922 32.460938 C 13.294922 22.126286 21.665348 13.755859 32 13.755859 z " />
</svg>
