<?xml version="1.0" encoding="UTF-8" standalone="no"?>
<svg
   viewBox="0 0 64 64"
   version="1.1"
   id="svg6"
   sodipodi:docname="user.svg"
   inkscape:version="1.2.1 (9c6d41e410, 2022-07-14)"
   xmlns:inkscape="http://www.inkscape.org/namespaces/inkscape"
   xmlns:sodipodi="http://sodipodi.sourceforge.net/DTD/sodipodi-0.dtd"
   xmlns="http://www.w3.org/2000/svg"
   xmlns:svg="http://www.w3.org/2000/svg">
  <defs
     id="defs10">
    <pattern
       id="EMFhbasepattern"
       patternUnits="userSpaceOnUse"
       width="6"
       height="6"
       x="0"
       y="0" />
  </defs>
  <sodipodi:namedview
     id="namedview8"
     pagecolor="#ffffff"
     bordercolor="#000000"
     borderopacity="0.25"
     inkscape:showpageshadow="2"
     inkscape:pageopacity="0.0"
     inkscape:pagecheckerboard="0"
     inkscape:deskcolor="#d1d1d1"
     showgrid="false"
     inkscape:zoom="9.1592425"
     inkscape:cx="28.659575"
     inkscape:cy="33.299697"
     inkscape:window-width="1920"
     inkscape:window-height="1009"
     inkscape:window-x="-8"
     inkscape:window-y="-8"
     inkscape:window-maximized="1"
     inkscape:current-layer="svg6" />
  <path
     style="fill:#ffffff;fill-opacity:1;fill-rule:nonzero;stroke:none;stroke-width:0.747949"
     d="m 32.044135,0.13163216 c -17.701466,0 -31.9125022,14.21103684 -31.9125022,31.91250184 0,17.701467 14.2110362,31.912503 31.9125022,31.912503 17.701467,0 31.912502,-14.211036 31.912502,-31.912503 0,-17.701465 -14.211035,-31.91250184 -31.912502,-31.91250184 z m 0,18.20009884 c 4.23838,0 7.728809,3.49043 7.728809,7.978126 0,4.238379 -3.490429,7.728809 -7.728809,7.728809 -4.238379,0 -7.72881,-3.49043 -7.72881,-7.728809 0,0 0,0 0,0 0,-4.487696 3.490431,-7.978126 7.72881,-7.978126 z m 10.47129,27.424806 c -20.94258,0 -20.94258,0 -20.94258,0 0,-2.74248 0,-2.74248 0,-2.74248 0,-3.49043 2.991797,-6.482227 6.482228,-6.482227 0,0 0,0 0,0 7.978125,0 7.978125,0 7.978125,0 3.490429,0 6.482227,2.991797 6.482227,6.482227 0,0 0,0 0,0 z"
     id="path986" />
</svg>
