<svg xmlns="http://www.w3.org/2000/svg" viewBox="0 0 318.13 318.13"><g data-name="Layer 2"><circle cx="159.06" cy="159.06" r="159.06" style="fill:#e0e0e0"/><circle cx="110.3" cy="159.06" r="65.62" style="fill:#595959"/><circle cx="211.49" cy="159.06" r="65.62" style="fill:#999;opacity:.51"/><path d="M90.24 143.86v18.95c0 6.37 2.65 9.31 6.66 9.31 4.29 0 6.85-2.94 6.85-9.31v-18.95h5.93v18.57c0 10-5.16 14.47-13 14.47-7.52 0-12.39-4.2-12.39-14.42v-18.62zM133.89 176.37l-3.52-6.47c-1.4-2.5-2.32-4.24-3.23-6.12H127c-.77 1.88-1.64 3.62-2.94 6.12l-3.23 6.47H114l9.64-16.45-9.26-16.06h6.8l3.52 6.7c1.07 2 1.84 3.62 2.71 5.45h.09c.87-2 1.55-3.47 2.56-5.45l3.47-6.7h6.8l-9.5 15.87 9.89 16.64zM199.43 143.86v18.95c0 6.37 2.66 9.31 6.66 9.31 4.29 0 6.85-2.94 6.85-9.31v-18.95h5.93v18.57c0 10-5.16 14.47-13 14.47-7.53 0-12.4-4.2-12.4-14.42v-18.62zM231.6 143.86v32.51h-5.93v-32.51z" style="fill:#fff"/></g></svg>