<svg xmlns="http://www.w3.org/2000/svg" xmlns:xlink="http://www.w3.org/1999/xlink" viewBox="0 0 323.25 323.25"><defs><radialGradient id="ab0311dc-4186-417b-bb12-e8b72f96bc5c" cx="-172.16" cy="774.97" r="320.92" gradientTransform="translate(386.67 -107.35) scale(0.43 0.45)" gradientUnits="userSpaceOnUse"><stop offset="0" stop-color="#bd8af5"/><stop offset="0.14" stop-color="#b88bf5"/><stop offset="0.31" stop-color="#a88ff3"/><stop offset="0.5" stop-color="#8f96f2"/><stop offset="0.7" stop-color="#6b9eef"/><stop offset="0.91" stop-color="#3eaaec"/><stop offset="1" stop-color="#29afea"/></radialGradient><linearGradient id="b6b5de8d-8b89-4b44-8fa7-708d21dea38f" x1="-428.53" y1="-549.29" x2="-472.95" y2="-369.84" gradientTransform="matrix(0.42, 0, 0, -0.42, 379.23, -2.83)" gradientUnits="userSpaceOnUse"><stop offset="0" stop-color="#831bb3"/><stop offset="0.09" stop-color="#8b21bb"/><stop offset="0.3" stop-color="#982cc9"/><stop offset="0.56" stop-color="#a033d1"/><stop offset="1" stop-color="#a235d4"/></linearGradient><linearGradient id="b5cfe197-7a7b-47f7-8492-0deb737de75c" x1="507.11" y1="-1696.62" x2="573.79" y2="-1816.74" gradientTransform="translate(487.89 -486.67) rotate(180) scale(0.42)" gradientUnits="userSpaceOnUse"><stop offset="0" stop-color="#6d7479"/><stop offset="1" stop-color="#323538"/></linearGradient><linearGradient id="f3d5a4a1-ea9e-4757-b694-b7c0bc52932b" x1="654.67" y1="-1602.37" x2="697.62" y2="-1691.51" gradientTransform="translate(487.89 -486.67) rotate(180) scale(0.42)" gradientUnits="userSpaceOnUse"><stop offset="0" stop-color="#cfdbe6"/><stop offset="1" stop-color="#8f979e"/></linearGradient></defs><g id="a152d214-d5f4-4845-9a39-826f8e4d2d74" data-name="Layer 2"><g id="a5bf94ec-c665-407e-9413-dd90f92ceaa7" data-name="Layer 5"><rect width="323.25" height="323.25" style="fill-opacity:0"/><path d="M269.11,257.79h-215a11.31,11.31,0,0,1-11.31-11.31v-164A11.31,11.31,0,0,1,54.14,71.12h215a11.31,11.31,0,0,1,11.31,11.31v164A11.31,11.31,0,0,1,269.11,257.79Z" style="fill:url(#ab0311dc-4186-417b-bb12-e8b72f96bc5c)"/><path d="M257.79,116.37H246.48a5.66,5.66,0,0,1-5.66-5.66V99.4a5.67,5.67,0,0,1,5.66-5.66h11.31a5.67,5.67,0,0,1,5.66,5.66v11.31A5.66,5.66,0,0,1,257.79,116.37Z" style="fill:#fff"/><path d="M257.79,156H246.48a5.67,5.67,0,0,1-5.66-5.66V139a5.66,5.66,0,0,1,5.66-5.66h11.31a5.66,5.66,0,0,1,5.66,5.66v11.31A5.67,5.67,0,0,1,257.79,156Z" style="fill:#fff"/><path d="M257.79,195.57H246.48a5.67,5.67,0,0,1-5.66-5.66V178.6a5.66,5.66,0,0,1,5.66-5.66h11.31a5.66,5.66,0,0,1,5.66,5.66v11.31A5.67,5.67,0,0,1,257.79,195.57Z" style="fill:#fff"/><path d="M257.79,235.16H246.48a5.66,5.66,0,0,1-5.66-5.65V218.19a5.66,5.66,0,0,1,5.66-5.65h11.31a5.66,5.66,0,0,1,5.66,5.65v11.32A5.66,5.66,0,0,1,257.79,235.16Z" style="fill:#fff"/><path d="M76.77,116.37H65.46a5.66,5.66,0,0,1-5.66-5.66V99.4a5.67,5.67,0,0,1,5.66-5.66H76.77a5.67,5.67,0,0,1,5.66,5.66v11.31A5.66,5.66,0,0,1,76.77,116.37Z" style="fill:#fff"/><path d="M76.77,156H65.46a5.67,5.67,0,0,1-5.66-5.66V139a5.66,5.66,0,0,1,5.66-5.66H76.77A5.66,5.66,0,0,1,82.43,139v11.31A5.67,5.67,0,0,1,76.77,156Z" style="fill:#fff"/><path d="M76.77,195.57H65.46a5.67,5.67,0,0,1-5.66-5.66V178.6a5.66,5.66,0,0,1,5.66-5.66H76.77a5.66,5.66,0,0,1,5.66,5.66v11.31A5.67,5.67,0,0,1,76.77,195.57Z" style="fill:#fff"/><path d="M76.77,235.16H65.46a5.66,5.66,0,0,1-5.66-5.65V218.19a5.66,5.66,0,0,1,5.66-5.65H76.77a5.66,5.66,0,0,1,5.66,5.65v11.32A5.66,5.66,0,0,1,76.77,235.16Z" style="fill:#fff"/><path d="M192,151.22l4.26,4.22a5.3,5.3,0,0,0,5.09,1.37l5.8-1.53a3.16,3.16,0,0,1,3.85,2.23l1.58,5.78a5.32,5.32,0,0,0,3.73,3.73l5.79,1.58a3.16,3.16,0,0,1,2.22,3.85l-1.52,5.8a5.31,5.31,0,0,0,1.36,5.09l4.22,4.26a3.15,3.15,0,0,1,0,4.44l-4.22,4.26a5.32,5.32,0,0,0-1.36,5.09l2.32,8.83-8.8,2.4a5.32,5.32,0,0,0-3.73,3.73l-2.41,8.8-8.82-2.31a5.3,5.3,0,0,0-5.09,1.37l-4.26,4.22a3.15,3.15,0,0,1-4.44,0l-4.26-4.22a5.29,5.29,0,0,0-5.09-1.37l-5.8,1.53a3.17,3.17,0,0,1-3.85-2.23L167,216.36a5.31,5.31,0,0,0-3.72-3.73l-5.79-1.58a3.16,3.16,0,0,1-2.23-3.85l1.53-5.8a5.29,5.29,0,0,0-1.37-5.09l-4.22-4.26a3.15,3.15,0,0,1,0-4.44l4.22-4.26a5.3,5.3,0,0,0,1.37-5.09l-1.53-5.8a3.16,3.16,0,0,1,2.23-3.85l5.79-1.58A5.31,5.31,0,0,0,167,163.3l1.58-5.79a3.16,3.16,0,0,1,3.85-2.22l5.8,1.52a5.31,5.31,0,0,0,5.09-1.36l4.26-4.22A3.15,3.15,0,0,1,192,151.22Z" style="fill:url(#b6b5de8d-8b89-4b44-8fa7-708d21dea38f)"/><path d="M279.48,295.22,215.65,231.4l15.74-15.74,63.82,63.82a7.41,7.41,0,0,1,0,10.49L290,295.21A7.42,7.42,0,0,1,279.48,295.22Z" style="fill:url(#b5cfe197-7a7b-47f7-8492-0deb737de75c)"/><path d="M196.61,180.87l34.79,34.79L215.67,231.4l-34.79-34.79a7.41,7.41,0,0,1,0-10.49l5.24-5.24A7.42,7.42,0,0,1,196.61,180.87Z" style="fill:url(#f3d5a4a1-ea9e-4757-b694-b7c0bc52932b)"/></g></g></svg>